<?xml version="1.0" standalone="no"?>
<!DOCTYPE svg PUBLIC "-//W3C//DTD SVG 20010904//EN"
 "http://www.w3.org/TR/2001/REC-SVG-20010904/DTD/svg10.dtd">
<svg version="1.0" xmlns="http://www.w3.org/2000/svg"
 viewBox="0 0 2600.000000 2600.000000"
 preserveAspectRatio="xMidYMid meet">
<metadata>
Created by potrace 1.15, written by Peter Selinger 2001-2017
</metadata>
<g transform="translate(0.000000,2600.000000) scale(0.100000,-0.100000)"
fill="#000000" stroke="none">
<path d="M10080 20864 c-707 -116 -1087 -272 -1408 -578 -397 -380 -640 -950
-791 -1861 -124 -742 -272 -2766 -337 -4613 -5 -133 -10 -192 -18 -189 -157
60 -505 154 -709 191 -567 105 -1201 101 -1786 -10 -161 -30 -241 -59 -333
-120 -38 -25 -71 -45 -72 -43 -17 18 -485 857 -676 1209 -525 972 -845 1751
-941 2295 -31 173 -34 520 -6 690 43 261 128 547 276 929 45 115 81 215 81
223 0 8 -11 25 -25 38 -44 44 -69 35 -190 -71 -149 -131 -416 -400 -499 -504
-499 -624 -570 -1281 -242 -2245 213 -627 678 -1542 1631 -3205 658 -1148
2068 -3500 2118 -3532 25 -16 74 -8 94 15 17 19 382 616 412 675 7 12 9 32 6
43 -4 12 -106 184 -227 383 -462 757 -1123 1864 -1117 1870 2 2 85 14 184 27
151 20 224 24 450 23 330 0 504 -19 780 -84 224 -53 416 -121 629 -223 l128
-61 -6 -81 c-3 -44 -9 -238 -12 -431 -7 -350 -7 -351 15 -373 11 -11 33 -21
49 -21 24 0 695 315 731 344 18 14 343 -316 504 -514 313 -384 610 -863 837
-1349 92 -196 220 -506 220 -533 0 -43 -257 -48 -400 -8 -237 67 -516 257
-813 553 -82 81 -162 154 -179 163 -17 9 -53 18 -82 21 -68 6 -148 -33 -190
-94 -46 -67 -47 -131 -2 -273 61 -191 87 -334 93 -517 7 -183 -4 -276 -44
-388 -132 -365 -483 -442 -1025 -224 -112 45 -169 50 -235 18 -134 -65 -163
-239 -58 -344 31 -31 69 -52 170 -92 395 -157 710 -182 999 -79 402 144 635
529 636 1053 l0 101 109 -73 c202 -134 415 -228 616 -271 111 -23 324 -23 430
0 220 49 406 155 583 333 l92 93 11 -27 c25 -67 115 -235 173 -322 230 -351
497 -556 841 -648 128 -34 352 -42 496 -18 141 23 293 73 432 143 65 32 119
56 122 54 3 -3 5 -18 5 -33 0 -46 39 -220 71 -319 66 -200 168 -369 300 -495
188 -179 407 -270 682 -282 70 -3 127 -9 127 -13 0 -4 -20 -50 -44 -101 -142
-300 -149 -584 -20 -844 102 -208 322 -405 618 -555 214 -109 265 -119 357
-72 73 37 109 89 116 170 5 53 2 69 -21 115 -29 60 -62 86 -166 133 -179 80
-348 191 -433 284 -74 82 -119 184 -125 280 -6 113 17 205 89 347 62 124 142
242 259 383 97 117 113 189 65 287 -46 92 -145 136 -246 108 -204 -56 -287
-75 -378 -85 -277 -32 -498 43 -630 213 -41 54 -121 200 -121 222 0 6 42 21
93 34 136 36 425 132 586 196 867 343 1590 876 2018 1487 l55 79 127 -6 c1334
-65 2248 -432 2676 -1075 96 -143 170 -309 251 -560 4 -11 -47 -56 -164 -147
-148 -115 -172 -138 -187 -176 -13 -36 -15 -52 -6 -85 21 -77 110 -127 183
-103 18 6 114 75 212 152 125 98 184 138 195 133 132 -55 278 -65 393 -26 232
80 368 284 356 532 l-5 95 1349 1052 1350 1053 72 -66 c249 -229 486 -295 611
-170 113 114 75 327 -103 575 -29 40 -52 74 -50 75 2 1 36 28 75 59 87 69 107
103 100 165 -9 82 -75 137 -155 129 -34 -4 -60 -18 -124 -67 -45 -34 -87 -64
-95 -67 -7 -3 -30 10 -51 29 -66 60 -168 128 -249 165 -104 48 -204 57 -276
23 -76 -36 -126 -117 -127 -205 -1 -90 58 -245 139 -363 l40 -59 -22 -20 c-48
-44 -2578 -2013 -2586 -2013 -4 0 -16 21 -26 47 -37 99 -150 308 -235 436
-455 677 -1216 1138 -2261 1371 -241 53 -225 53 -329 11 -220 -88 -400 -125
-650 -132 -132 -4 -204 -1 -294 11 -352 50 -673 187 -935 399 -335 273 -575
670 -660 1095 -38 188 -45 472 -16 647 5 29 -3 92 -29 215 -213 1041 -186
1952 78 2681 25 69 59 156 76 195 103 228 69 445 -95 610 -246 249 -666 186
-828 -124 -47 -91 -135 -316 -191 -489 -215 -673 -279 -1473 -185 -2328 68
-619 224 -1296 446 -1940 l59 -170 -19 -80 c-22 -96 -63 -154 -171 -243 -218
-181 -641 -391 -987 -490 -115 -33 -266 -67 -345 -77 l-51 -6 -152 241 c-738
1170 -1731 2905 -2736 4785 -103 193 -219 410 -258 483 -80 148 -144 232 -227
294 -59 44 -175 101 -227 113 -27 5 -32 10 -29 28 3 12 8 69 11 127 30 516
104 1215 166 1580 229 1345 473 1764 1424 2442 94 66 176 128 183 136 17 22
15 63 -4 90 -13 19 -24 22 -72 21 -31 -1 -95 -7 -142 -15z m-1560 -6841 c146
-269 633 -1147 789 -1422 l121 -214 -73 67 c-368 339 -593 518 -871 693 -66
42 -123 77 -125 79 -5 4 29 973 35 992 2 6 5 12 8 12 2 0 54 -93 116 -207z"/>
<path d="M14595 17260 c-94 -29 -129 -159 -62 -235 15 -18 681 -319 2232
-1009 2062 -918 2210 -985 2209 -1007 -1 -13 -11 -71 -24 -129 -28 -130 -32
-318 -7 -393 51 -159 195 -226 332 -155 59 31 143 111 196 190 37 54 110 187
121 218 4 12 20 8 91 -23 50 -21 102 -37 124 -37 102 0 172 111 128 204 -21
44 -45 62 -156 110 l-86 38 17 86 c37 182 34 325 -9 423 -40 93 -146 159 -229
144 -114 -20 -218 -108 -314 -266 -32 -52 -61 -99 -65 -106 -6 -8 -684 290
-2206 968 -1209 538 -2212 980 -2230 983 -18 3 -46 1 -62 -4z"/>
<path d="M16035 14079 c-237 -32 -485 -126 -681 -258 -729 -492 -920 -1472
-430 -2206 229 -342 578 -578 986 -665 160 -34 423 -39 589 -11 870 148 1454
967 1305 1831 -57 329 -204 611 -443 851 -233 233 -487 371 -808 439 -113 24
-403 35 -518 19z"/>
</g>
</svg>
